<?xml version="1.0" encoding="UTF-8"?>
<!DOCTYPE svg PUBLIC "-//W3C//DTD SVG 1.1//EN" "http://www.w3.org/Graphics/SVG/1.1/DTD/svg11.dtd">
<!-- Creator: CorelDRAW 2020 (64-Bit) -->
<svg xmlns="http://www.w3.org/2000/svg" xml:space="preserve" width="400mm" height="105mm" version="1.1" style="shape-rendering:geometricPrecision; text-rendering:geometricPrecision; image-rendering:optimizeQuality; fill-rule:evenodd; clip-rule:evenodd"
viewBox="0 0 40000 10500"
 xmlns:xlink="http://www.w3.org/1999/xlink"
 xmlns:xodm="http://www.corel.com/coreldraw/odm/2003">
 <defs>
  <style type="text/css">
   <![CDATA[
    .fil1 {fill:black}
    .fil0 {fill:#FEFEFE}
   ]]>
  </style>
 </defs>
 <g id="Layer_x0020_1">
  <metadata id="CorelCorpID_0Corel-Layer"/>
  <g id="_2860267507472">
   <polygon class="fil0" points="68.5,435.96 40068.51,435.96 40068.51,10486.42 68.5,10486.42 "/>
   <path class="fil1" d="M4209.93 3983.64c-437.47,126.63 -620.13,269.22 -821.75,639.14 -571.02,1047.65 99.11,2791.55 1554.31,2364.91 1590.24,-466.25 1119.43,-3540.13 -732.56,-3004.05z"/>
   <path class="fil1" d="M31285.45 7002.73c1006.45,24.88 2380.94,164.26 2416.17,-1470.86 31.32,-1454.61 -1045.94,-1696.7 -2422.75,-1548.3l6.58 3019.16z"/>
   <path class="fil1" d="M12736.29 6999.2c539.7,11.19 1303.8,64.62 1721.59,-165.23 390.43,-214.8 678.55,-647.63 693.07,-1302.4 31.93,-1438.01 -1050.34,-1727.99 -2419.06,-1548.91l4.4 3016.54z"/>
   <path class="fil1" d="M25248.67 6997.96l413.81 5.15c154.43,-296.8 244.02,-793.99 337.94,-1130.18l356.42 -1140.16c240.5,322.89 431.29,1855.54 694.37,2266.7l396.96 0.11 838.89 -3020.72 -438.9 -5.03c-112.67,402.21 -202.48,808.75 -301.47,1205.6 -53.76,215.54 -195.27,1057.01 -346.69,1139.31l-623.2 -2344.59 -418.33 -3.21c-167.69,264.84 -250.36,843.73 -335.47,1171.26 -45.67,175.74 -225.33,1068.72 -358.9,1179.52l-603.41 -2339.98 -431.24 -9.37 819.22 3025.59z"/>
   <path class="fil0" d="M4245.8 4368.38c-1130.03,433.11 -693.14,2757.43 648.68,2227.51 1006.19,-397.37 691.22,-2741.06 -648.68,-2227.51z"/>
   <path class="fil1" d="M9604.69 6991.1l423.07 6.31 -3.22 -2244.49c253.23,125.21 1441.28,1996.86 1601.96,2229.17l402.7 23.09 -0.05 -3042.98 -421.29 3.46 1.52 2241.77c-167.03,-39.12 -686.65,-890.51 -820.93,-1085.63 -266.52,-387.22 -509.18,-786.14 -798.65,-1147.19l-385.43 -3.95 0.32 3020.44z"/>
   <path class="fil1" d="M36829.86 5468l-1163.14 3.44 9.04 348.17 739.99 -1.88c-52.47,1199.45 -1715.9,1148.98 -1775.41,-185.11 -53.98,-1210.11 739.29,-1510.52 1321.42,-1235.44 236.52,111.75 270.01,239.69 413.7,487.21l422.58 20.42c-337.21,-1520.69 -2842.06,-1307.88 -2568.82,877.94 177.84,1422.6 1750.16,1584.53 2349.84,806.89 240.41,-311.75 245.88,-652.01 250.8,-1121.64z"/>
   <path class="fil1" d="M16651.61 2661.4c400.98,44.14 485.54,-480.99 1518.58,-941.85 1586.41,-707.71 3408.72,-420.36 4649.24,774.21 403.36,388.4 651.27,57.39 381.53,-232.44 -1512.52,-1625.16 -4331.81,-1885.01 -6226.31,-289.32 -254.57,214.42 -553.24,373.3 -323.04,689.4z"/>
   <path class="fil1" d="M19909.22 10084.32c740.3,0 1460.92,-183.47 2023.06,-463.73 1746.86,-870.92 1459.8,-1444.75 1088.11,-1304.49 -39.26,14.81 -2110.19,2321.76 -5056.58,829.96 -302.21,-153 -500.03,-289.37 -744.22,-499.15 -75.54,-64.88 -613.46,-658.22 -664.54,-156.97 -43.3,424.72 1754.64,1594.38 3354.17,1594.38z"/>
   <path class="fil0" d="M13165.39 6622.35c967.76,56.03 1559,-122.55 1559.49,-1141.4 0.51,-1017.34 -584.15,-1198.17 -1548.04,-1137.92l-11.45 2279.32z"/>
   <path class="fil0" d="M31714.07 6624.25c981.71,57.34 1563.92,-130.3 1564.37,-1140.82 0.44,-975.65 -581.82,-1229.89 -1544.91,-1132.95l-19.46 2273.77z"/>
   <path class="fil1" d="M8901.58 3962.73l-432.02 12.82c8.57,574.86 0.05,1141.22 3.01,1705.69 3.24,615.43 -137.32,978.93 -764.82,983.27 -634.34,4.38 -776.97,-338.5 -775.06,-931.85 1.91,-589.96 0.04,-1179.95 1,-1769.93l-423.4 2.55c5.33,653.59 -46.38,1485.4 6.67,2117.26 49.57,590.45 547.23,975 1191.52,971.11 1583.29,-9.57 1179.11,-1658.81 1193.1,-3090.92z"/>
   <path class="fil1" d="M814.34 6181.5l-335.91 6.41c69.25,680.91 717.14,986.4 1465.47,832.01 632.65,-130.55 1063.94,-854.82 540.41,-1372.4 -433.37,-428.45 -1427.79,-307.63 -1502.03,-832.19 -76.11,-537.87 748.04,-660.85 1086.54,-402.26 314.27,240.1 -62.24,321.05 591.88,323.26 -86.17,-644.42 -752.61,-1003.97 -1486.53,-740.55 -600.62,215.57 -920.92,958.64 -273.65,1394.24 454.11,305.59 1543.76,246.48 1370.22,906.49 -75.18,285.92 -378.94,404.41 -759.69,381.66 -171.29,-10.23 -337.11,-60.19 -441.8,-152.01 -212.07,-185.98 -40.02,-236.84 -254.91,-344.66z"/>
   <polygon class="fil1" points="28758.07,7000.9 30639.22,7004.29 30650.13,6656.24 29187.04,6644.44 29185.08,5669.58 30517.95,5665.4 30533.81,5301.96 29211.01,5308.14 29184.06,4339.57 30622.02,4330.66 30634.62,3966.94 28755.08,3973.25 "/>
   <polygon class="fil1" points="37449.7,7010.96 39339.38,7002.63 39336.35,6646.41 37872.93,6644.08 37871.1,5676.05 39219.57,5661.47 39218.29,5319.62 37871.02,5304.72 37873.11,4347.19 39323.96,4332.15 39322.31,3966.91 37447.94,3970.16 "/>
   <path class="fil1" d="M17557.38 7448.54c-205.85,158.82 -155.88,233.15 147.87,505.08 1425.5,1276.21 3675,990.13 4633.32,-175.14 155.93,-189.62 19.7,-481.42 -244.24,-348.08 -100.35,50.7 -1505.67,1586.01 -3455.34,635.87 -717.03,-349.44 -832.83,-809.67 -1081.61,-617.73z"/>
   <path class="fil1" d="M17541.25 3564.93c490.73,57.14 876.38,-1104.89 2712.65,-927.04 514.63,49.85 1000.96,257.4 1339.47,490.69 146.1,100.66 423.88,378.19 492.75,413.09 269.04,136.29 445.81,-139.5 227.35,-383.52 -481.63,-537.99 -1578.59,-1078.73 -2699.02,-969.86 -759.95,73.84 -1382.78,389.6 -1904.38,826.34 -245.95,205.94 -339.09,287.83 -168.82,550.3z"/>
   <path class="fil1" d="M21446.73 6539.11c-213.64,-118.46 -240.63,-41.89 -389.4,99.28 -112.73,106.98 -208.07,174.45 -355.21,246.26 -1280.7,624.95 -1904.91,-428.45 -2173.08,-390.56 -591.34,83.55 320.3,1102.31 1566.93,1012.1 500.71,-36.23 1641.36,-512.09 1350.76,-967.08z"/>
   <path class="fil1" d="M18429.85 4468.45c448.95,67.63 659.88,-718.46 1773.8,-541.14 355.6,56.6 610.1,194.16 818.56,379.92 437.87,390.17 648.54,17.41 359.84,-261.35 -367.52,-354.86 -1017.21,-671.51 -1765.58,-561.81 -370.21,54.28 -1504.85,479.15 -1186.62,984.38z"/>
   <path class="fil1" d="M19769.82 4917.59c-792.61,269.84 -371.94,1384.43 359.6,1135.22 706.42,-240.65 354.15,-1378.2 -359.6,-1135.22z"/>
  </g>
 </g>
</svg>
